HIERARCHY
ROOT Hips
{
	OFFSET 0.000000 0.000000 0.000000
	CHANNELS 6 Xposition Yposition Zposition Xrotation Yrotation Zrotation
	JOINT Thigh.L
	{
		OFFSET 0.055848 0.027124 -0.095942
		CHANNELS 3 Xrotation Yrotation Zrotation
		JOINT Shin.L
		{
			OFFSET 0.059779 0.006768 -0.411267
			CHANNELS 3 Xrotation Yrotation Zrotation
			JOINT Foot.L
			{
				OFFSET -0.042525 0.032420 -0.436603
				CHANNELS 3 Xrotation Yrotation Zrotation
				JOINT Toe.L
				{
					OFFSET 0.048534 -0.126689 -0.064076
					CHANNELS 3 Xrotation Yrotation Zrotation
					End Site
					{
						OFFSET 0.000000 0.050000 0.000000
					}
				}
			}
		}
	}
	JOINT Thigh.R
	{
		OFFSET -0.060957 0.021415 -0.108613
		CHANNELS 3 Xrotation Yrotation Zrotation
		JOINT Shin.R
		{
			OFFSET -0.048784 0.014861 -0.392588
			CHANNELS 3 Xrotation Yrotation Zrotation
			JOINT Foot.R
			{
				OFFSET 0.014244 0.020477 -0.445603
				CHANNELS 3 Xrotation Yrotation Zrotation
				JOINT Toe.R
				{
					OFFSET -0.039832 -0.127509 -0.063951
					CHANNELS 3 Xrotation Yrotation Zrotation
					End Site
					{
						OFFSET 0.000000 0.050000 0.000000
					}
				}
			}
		}
	}
	JOINT Spine
	{
		OFFSET -0.002662 0.027661 0.115237
		CHANNELS 3 Xrotation Yrotation Zrotation
		JOINT Spine.2
		{
			OFFSET 0.009337 0.006489 0.143765
			CHANNELS 3 Xrotation Yrotation Zrotation
			JOINT Chest
			{
				OFFSET -0.011074 -0.024016 0.057105
				CHANNELS 3 Xrotation Yrotation Zrotation
				JOINT Neck
				{
					OFFSET -0.012402 0.026207 0.171548
					CHANNELS 3 Xrotation Yrotation Zrotation
					JOINT Head
					{
						OFFSET 0.025675 -0.021011 0.169714
						CHANNELS 3 Xrotation Yrotation Zrotation
						End Site
						{
							OFFSET 0.000000 0.050000 0.000000
						}
					}
				}
				JOINT Clavicle.L
				{
					OFFSET 0.047925 0.004506 0.088375
					CHANNELS 3 Xrotation Yrotation Zrotation
					JOINT UpperArm.L
					{
						OFFSET 0.128516 0.014210 0.058973
						CHANNELS 3 Xrotation Yrotation Zrotation
						JOINT ForeArm.L
						{
							OFFSET 0.269607 0.043581 -0.075554
							CHANNELS 3 Xrotation Yrotation Zrotation
							JOINT Hand.L
							{
								OFFSET 0.272995 0.000651 0.022765
								CHANNELS 3 Xrotation Yrotation Zrotation
								JOINT Thumb1.L
								{
									OFFSET 0.154585 0.000285 0.009972
									CHANNELS 3 Xrotation Yrotation Zrotation
									JOINT Thumb2.L
									{
										OFFSET 0.029896 0.000071 0.002493
										CHANNELS 3 Xrotation Yrotation Zrotation
										End Site
										{
											OFFSET 0.024913 0.000059 0.002078
										}
									}
								}
								JOINT Index1.L
								{
									OFFSET 0.137585 0.000285 0.009972
									CHANNELS 3 Xrotation Yrotation Zrotation
									JOINT Index2.L
									{
										OFFSET 0.029896 0.000071 0.002493
										CHANNELS 3 Xrotation Yrotation Zrotation
										JOINT Index3.L
										{
											OFFSET 0.021924 0.000052 0.001828
											CHANNELS 3 Xrotation Yrotation Zrotation
											End Site
											{
												OFFSET 0.017938 0.000043 0.001496
											}
										}
									}
								}
								JOINT Middle1.L
								{
									OFFSET 0.119585 0.000285 0.009972
									CHANNELS 3 Xrotation Yrotation Zrotation
									JOINT Middle2.L
									{
										OFFSET 0.030893 0.000074 0.002576
										CHANNELS 3 Xrotation Yrotation Zrotation
										JOINT Middle3.L
										{
											OFFSET 0.021924 0.000052 0.001828
											CHANNELS 3 Xrotation Yrotation Zrotation
											End Site
											{
												OFFSET 0.017938 0.000043 0.001496
											}
										}
									}
								}
								JOINT Ring1.L
								{
									OFFSET 0.101585 0.000285 0.009972
									CHANNELS 3 Xrotation Yrotation Zrotation
									JOINT Ring2.L
									{
										OFFSET 0.028900 0.000069 0.002410
										CHANNELS 3 Xrotation Yrotation Zrotation
										JOINT Ring3.L
										{
											OFFSET 0.019931 0.000048 0.001662
											CHANNELS 3 Xrotation Yrotation Zrotation
											End Site
											{
												OFFSET 0.016941 0.000040 0.001413
											}
										}
									}
								}
								JOINT Pinky1.L
								{
									OFFSET 0.085585 0.000285 0.009972
									CHANNELS 3 Xrotation Yrotation Zrotation
									JOINT Pinky2.L
									{
										OFFSET 0.023917 0.000057 0.001994
										CHANNELS 3 Xrotation Yrotation Zrotation
										JOINT Pinky3.L
										{
											OFFSET 0.016941 0.000040 0.001413
											CHANNELS 3 Xrotation Yrotation Zrotation
											End Site
											{
												OFFSET 0.013952 0.000033 0.001163
											}
										}
									}
								}
							}
						}
					}
				}
				JOINT Clavicle.R
				{
					OFFSET -0.049039 0.010709 0.087505
					CHANNELS 3 Xrotation Yrotation Zrotation
					JOINT UpperArm.R
					{
						OFFSET -0.111421 0.010775 0.055026
						CHANNELS 3 Xrotation Yrotation Zrotation
						JOINT ForeArm.R
						{
							OFFSET -0.288098 0.027961 -0.039361
							CHANNELS 3 Xrotation Yrotation Zrotation
							JOINT Hand.R
							{
								OFFSET -0.269315 0.014185 -0.005354
								CHANNELS 3 Xrotation Yrotation Zrotation
								JOINT Thumb1.R
								{
									OFFSET -0.154810 0.006310 -0.002382
									CHANNELS 3 Xrotation Yrotation Zrotation
									JOINT Thumb2.R
									{
										OFFSET -0.029953 0.001578 -0.000595
										CHANNELS 3 Xrotation Yrotation Zrotation
										End Site
										{
											OFFSET -0.024960 0.001315 -0.000496
										}
									}
								}
								JOINT Index1.R
								{
									OFFSET -0.137810 0.006310 -0.002382
									CHANNELS 3 Xrotation Yrotation Zrotation
									JOINT Index2.R
									{
										OFFSET -0.029953 0.001578 -0.000595
										CHANNELS 3 Xrotation Yrotation Zrotation
										JOINT Index3.R
										{
											OFFSET -0.021965 0.001157 -0.000437
											CHANNELS 3 Xrotation Yrotation Zrotation
											End Site
											{
												OFFSET -0.017972 0.000947 -0.000357
											}
										}
									}
								}
								JOINT Middle1.R
								{
									OFFSET -0.119810 0.006310 -0.002382
									CHANNELS 3 Xrotation Yrotation Zrotation
									JOINT Middle2.R
									{
										OFFSET -0.030951 0.001630 -0.000615
										CHANNELS 3 Xrotation Yrotation Zrotation
										JOINT Middle3.R
										{
											OFFSET -0.021965 0.001157 -0.000437
											CHANNELS 3 Xrotation Yrotation Zrotation
											End Site
											{
												OFFSET -0.017972 0.000947 -0.000357
											}
										}
									}
								}
								JOINT Ring1.R
								{
									OFFSET -0.101810 0.006310 -0.002382
									CHANNELS 3 Xrotation Yrotation Zrotation
									JOINT Ring2.R
									{
										OFFSET -0.028954 0.001525 -0.000576
										CHANNELS 3 Xrotation Yrotation Zrotation
										JOINT Ring3.R
										{
											OFFSET -0.019968 0.001052 -0.000397
											CHANNELS 3 Xrotation Yrotation Zrotation
											End Site
											{
												OFFSET -0.016973 0.000894 -0.000337
											}
										}
									}
								}
								JOINT Pinky1.R
								{
									OFFSET -0.085810 0.006310 -0.002382
									CHANNELS 3 Xrotation Yrotation Zrotation
									JOINT Pinky2.R
									{
										OFFSET -0.023962 0.001262 -0.000476
										CHANNELS 3 Xrotation Yrotation Zrotation
										JOINT Pinky3.R
										{
											OFFSET -0.016973 0.000894 -0.000337
											CHANNELS 3 Xrotation Yrotation Zrotation
											End Site
											{
												OFFSET -0.013978 0.000736 -0.000278
											}
										}
									}
								}
							}
						}
					}
				}
			}
		}
	}
}
MOTION
Frames: 8
Frame Time: 0.04166667
0.027359 0.466389 1.029544 -6.535138 1.649832 -2.722973 -20.638523 -1.286022 -2.116873 7.704139 1.508226 -3.191557 -2.248075 3.296112 9.138810 -0.120438 -1.719881 -1.149047 13.397915 -6.305088 -1.918347 5.697019 0.784904 9.300304 -19.714078 3.064365 -0.713528 -0.935095 -1.161885 0.451547 13.674416 -0.561076 7.801860 -0.853420 0.432243 -2.229334 3.534649 -0.026464 1.566571 6.771673 1.020851 7.873707 1.165237 -1.816031 5.755270 -1.343132 22.416093 -1.780796 21.031387 44.118482 -17.580824 17.776055 -3.124278 -24.614039 -1.711675 1.756664 -8.660931 0.000000 0.000000 0.000000 0.000000 0.000000 0.000000 0.000000 0.000000 0.000000 0.000000 0.000000 0.000000 0.000000 0.000000 0.000000 0.000000 0.000000 0.000000 0.000000 0.000000 0.000000 0.000000 0.000000 0.000000 0.000000 0.000000 0.000000 0.000000 0.000000 0.000000 0.000000 0.000000 0.000000 0.000000 0.000000 0.000000 0.000000 0.000000 0.000000 0.000000 0.000000 0.000000 -0.400593 -18.709751 8.058193 21.608430 -42.525769 24.146748 12.338968 3.227751 32.936071 -5.378545 -2.445302 7.547746 0.000000 0.000000 0.000000 0.000000 0.000000 0.000000 0.000000 0.000000 0.000000 0.000000 0.000000 0.000000 0.000000 0.000000 0.000000 0.000000 0.000000 0.000000 0.000000 0.000000 0.000000 0.000000 0.000000 0.000000 0.000000 0.000000 0.000000 0.000000 0.000000 0.000000 0.000000 0.000000 0.000000 0.000000 0.000000 0.000000 0.000000 0.000000 0.000000 0.000000 0.000000 0.000000
0.020045 0.493250 1.026146 -6.277174 2.075326 -3.221275 -20.478114 -1.056161 -2.064845 6.057631 1.201735 -3.230102 -1.694231 3.272644 9.286214 -0.201201 -1.837311 -1.179414 14.486744 -6.335645 -2.006833 6.289753 1.035680 9.974956 -20.399890 3.168223 -0.671729 -0.956447 -1.200936 0.441863 13.053447 -0.511279 7.958894 -0.663706 0.422850 -2.189426 3.608178 0.015555 1.597943 6.938335 0.809960 7.946058 1.380924 -1.948444 5.572160 -1.249103 22.676337 -1.421708 20.822307 44.015677 -16.875318 17.612380 -3.055520 -24.251495 -1.837056 1.934389 -8.645996 0.000000 0.000000 0.000000 0.000000 0.000000 0.000000 0.000000 0.000000 0.000000 0.000000 0.000000 0.000000 0.000000 0.000000 0.000000 0.000000 0.000000 0.000000 0.000000 0.000000 0.000000 0.000000 0.000000 0.000000 0.000000 0.000000 0.000000 0.000000 0.000000 0.000000 0.000000 0.000000 0.000000 0.000000 0.000000 0.000000 0.000000 0.000000 0.000000 0.000000 0.000000 0.000000 -0.440929 -19.024654 7.947454 21.675868 -42.478394 24.298527 12.642935 3.448641 32.712562 -5.086121 -2.644577 7.679205 0.000000 0.000000 0.000000 0.000000 0.000000 0.000000 0.000000 0.000000 0.000000 0.000000 0.000000 0.000000 0.000000 0.000000 0.000000 0.000000 0.000000 0.000000 0.000000 0.000000 0.000000 0.000000 0.000000 0.000000 0.000000 0.000000 0.000000 0.000000 0.000000 0.000000 0.000000 0.000000 0.000000 0.000000 0.000000 0.000000 0.000000 0.000000 0.000000 0.000000 0.000000 0.000000
0.014056 0.522138 1.023121 -5.924030 2.375682 -3.751650 -20.885871 -0.755469 -2.313972 7.031359 1.364903 -3.126766 -1.258766 2.915958 9.543981 -0.287596 -1.945786 -1.209100 15.298599 -6.172598 -2.050681 7.293341 1.166850 10.632509 -20.737764 3.132484 -0.827066 -1.039193 -1.214032 0.405535 12.216819 -0.231486 8.177837 -0.406263 0.302838 -2.186597 3.605311 0.132523 1.627878 7.088097 0.606019 8.062634 1.590731 -2.193323 5.440149 -1.069428 22.965283 -1.035554 20.677945 43.800487 -16.299228 17.419001 -3.016691 -23.958405 -1.641841 2.042532 -8.687010 0.000000 0.000000 0.000000 0.000000 0.000000 0.000000 0.000000 0.000000 0.000000 0.000000 0.000000 0.000000 0.000000 0.000000 0.000000 0.000000 0.000000 0.000000 0.000000 0.000000 0.000000 0.000000 0.000000 0.000000 0.000000 0.000000 0.000000 0.000000 0.000000 0.000000 0.000000 0.000000 0.000000 0.000000 0.000000 0.000000 0.000000 0.000000 0.000000 0.000000 0.000000 0.000000 -0.289054 -19.550053 7.720660 21.856786 -42.502283 24.446934 12.968312 3.733516 32.372873 -4.548529 -2.829991 7.754401 0.000000 0.000000 0.000000 0.000000 0.000000 0.000000 0.000000 0.000000 0.000000 0.000000 0.000000 0.000000 0.000000 0.000000 0.000000 0.000000 0.000000 0.000000 0.000000 0.000000 0.000000 0.000000 0.000000 0.000000 0.000000 0.000000 0.000000 0.000000 0.000000 0.000000 0.000000 0.000000 0.000000 0.000000 0.000000 0.000000 0.000000 0.000000 0.000000 0.000000 0.000000 0.000000
0.009329 0.551179 1.020800 -5.455999 2.431207 -4.198220 -21.342217 -0.424885 -2.709677 9.347381 1.840936 -3.039851 -0.486085 2.442574 9.917957 -0.393643 -2.063039 -1.252521 15.591668 -5.712803 -1.989500 8.800914 1.152429 11.153284 -20.599357 3.082881 -1.395424 -1.090826 -1.228257 0.383838 11.281544 0.154285 8.322779 -0.243841 0.178605 -2.184351 3.627752 0.272531 1.661893 7.247102 0.538231 8.144750 1.965502 -2.356799 5.564934 -0.816189 23.251430 -0.717656 20.562102 43.497864 -15.939988 17.177529 -3.057190 -23.665939 -1.301372 2.214005 -8.729155 0.000000 0.000000 0.000000 0.000000 0.000000 0.000000 0.000000 0.000000 0.000000 0.000000 0.000000 0.000000 0.000000 0.000000 0.000000 0.000000 0.000000 0.000000 0.000000 0.000000 0.000000 0.000000 0.000000 0.000000 0.000000 0.000000 0.000000 0.000000 0.000000 0.000000 0.000000 0.000000 0.000000 0.000000 0.000000 0.000000 0.000000 0.000000 0.000000 0.000000 0.000000 0.000000 0.009065 -20.140949 7.456764 22.019899 -42.476250 24.496578 13.141717 3.927104 32.056912 -3.999205 -3.080689 7.754263 0.000000 0.000000 0.000000 0.000000 0.000000 0.000000 0.000000 0.000000 0.000000 0.000000 0.000000 0.000000 0.000000 0.000000 0.000000 0.000000 0.000000 0.000000 0.000000 0.000000 0.000000 0.000000 0.000000 0.000000 0.000000 0.000000 0.000000 0.000000 0.000000 0.000000 0.000000 0.000000 0.000000 0.000000 0.000000 0.000000 0.000000 0.000000 0.000000 0.000000 0.000000 0.000000
0.003676 0.581544 1.019548 -4.917347 2.330798 -4.376953 -21.640653 -0.038190 -3.131393 12.216051 2.390084 -2.998061 0.219953 1.743531 10.203934 -0.479228 -2.131279 -1.290626 15.465076 -4.946784 -1.928928 10.966862 1.223833 11.458812 -19.825032 2.458048 -1.456122 -1.140829 -1.201314 0.374780 10.322635 0.639982 8.416364 -0.117615 0.078643 -2.147520 3.634445 0.410927 1.657653 7.400787 0.443881 8.138446 2.275888 -2.526630 5.754709 -0.533466 23.466632 -0.454110 20.485037 43.251072 -15.748433 16.856899 -3.122996 -23.261948 -0.849333 2.455445 -8.679898 0.000000 0.000000 0.000000 0.000000 0.000000 0.000000 0.000000 0.000000 0.000000 0.000000 0.000000 0.000000 0.000000 0.000000 0.000000 0.000000 0.000000 0.000000 0.000000 0.000000 0.000000 0.000000 0.000000 0.000000 0.000000 0.000000 0.000000 0.000000 0.000000 0.000000 0.000000 0.000000 0.000000 0.000000 0.000000 0.000000 0.000000 0.000000 0.000000 0.000000 0.000000 0.000000 0.437359 -20.662723 7.142154 22.212719 -42.568346 24.436221 13.065426 3.935820 31.760312 -3.524905 -3.350705 7.675950 0.000000 0.000000 0.000000 0.000000 0.000000 0.000000 0.000000 0.000000 0.000000 0.000000 0.000000 0.000000 0.000000 0.000000 0.000000 0.000000 0.000000 0.000000 0.000000 0.000000 0.000000 0.000000 0.000000 0.000000 0.000000 0.000000 0.000000 0.000000 0.000000 0.000000 0.000000 0.000000 0.000000 0.000000 0.000000 0.000000 0.000000 0.000000 0.000000 0.000000 0.000000 0.000000
0.000689 0.615405 1.019447 -4.217538 2.082463 -4.512816 -21.654519 0.401633 -3.519033 14.484203 2.972859 -3.039247 0.005693 0.591513 10.581457 -0.566683 -2.219181 -1.364998 14.949124 -4.127722 -1.866988 13.679333 1.223159 11.417950 -18.098366 1.488497 -1.558915 -1.127708 -1.134178 0.399392 9.439835 1.030994 8.392219 -0.107286 0.044964 -2.058246 3.690237 0.537106 1.638715 7.579197 0.402780 8.244848 2.618582 -2.515068 5.982808 -0.299808 23.546293 -0.274421 20.399094 43.124183 -15.724654 16.473678 -3.119817 -22.925406 -0.455991 2.710661 -8.617926 0.000000 0.000000 0.000000 0.000000 0.000000 0.000000 0.000000 0.000000 0.000000 0.000000 0.000000 0.000000 0.000000 0.000000 0.000000 0.000000 0.000000 0.000000 0.000000 0.000000 0.000000 0.000000 0.000000 0.000000 0.000000 0.000000 0.000000 0.000000 0.000000 0.000000 0.000000 0.000000 0.000000 0.000000 0.000000 0.000000 0.000000 0.000000 0.000000 0.000000 0.000000 0.000000 0.742037 -20.999817 6.837869 22.618303 -42.865731 24.413810 12.908751 3.942391 31.364843 -3.253880 -3.732123 7.575964 0.000000 0.000000 0.000000 0.000000 0.000000 0.000000 0.000000 0.000000 0.000000 0.000000 0.000000 0.000000 0.000000 0.000000 0.000000 0.000000 0.000000 0.000000 0.000000 0.000000 0.000000 0.000000 0.000000 0.000000 0.000000 0.000000 0.000000 0.000000 0.000000 0.000000 0.000000 0.000000 0.000000 0.000000 0.000000 0.000000 0.000000 0.000000 0.000000 0.000000 0.000000 0.000000
-0.000480 0.651956 1.020568 -3.522507 1.692523 -4.343458 -21.270495 1.056470 -3.946216 16.356798 3.584426 -3.297196 -1.666742 -1.426396 10.733088 -0.621660 -2.304147 -1.355323 13.559475 -3.096418 -1.831381 17.880725 0.990736 10.977878 -14.780517 -0.222199 -1.543137 -1.034173 -1.106929 0.418114 8.690281 1.567179 8.227099 -0.112997 -0.004241 -1.945515 3.720677 0.606992 1.585181 7.604332 0.306211 8.189287 2.865277 -2.571094 6.119173 -0.011934 23.482890 -0.353847 20.384774 43.037134 -15.925495 16.220696 -3.066305 -22.689701 0.040602 2.953321 -8.495101 0.000000 0.000000 0.000000 0.000000 0.000000 0.000000 0.000000 0.000000 0.000000 0.000000 0.000000 0.000000 0.000000 0.000000 0.000000 0.000000 0.000000 0.000000 0.000000 0.000000 0.000000 0.000000 0.000000 0.000000 0.000000 0.000000 0.000000 0.000000 0.000000 0.000000 0.000000 0.000000 0.000000 0.000000 0.000000 0.000000 0.000000 0.000000 0.000000 0.000000 0.000000 0.000000 1.044296 -21.172201 6.575181 23.081683 -43.313894 24.264199 12.374891 3.836434 30.890053 -2.991668 -4.144349 7.539152 0.000000 0.000000 0.000000 0.000000 0.000000 0.000000 0.000000 0.000000 0.000000 0.000000 0.000000 0.000000 0.000000 0.000000 0.000000 0.000000 0.000000 0.000000 0.000000 0.000000 0.000000 0.000000 0.000000 0.000000 0.000000 0.000000 0.000000 0.000000 0.000000 0.000000 0.000000 0.000000 0.000000 0.000000 0.000000 0.000000 0.000000 0.000000 0.000000 0.000000 0.000000 0.000000
0.003327 0.690320 1.022706 -3.038445 1.118921 -3.959266 -20.520814 1.835315 -4.424424 18.310401 4.092604 -3.707451 -3.636274 -3.720096 10.696900 -0.660901 -2.373817 -1.351797 11.045359 -1.848534 -1.812417 23.947231 0.584072 10.116387 -9.443593 -2.431930 -1.717515 -0.928657 -1.031231 0.429228 8.272917 2.146067 7.886503 -0.198684 -0.032674 -1.830355 3.770094 0.636521 1.449552 7.846549 0.277354 8.073852 3.112553 -2.579490 6.419278 0.390583 23.273814 -0.736834 20.370027 43.095577 -16.364182 15.794387 -2.859892 -22.473879 0.624469 3.103054 -8.560175 0.000000 0.000000 0.000000 0.000000 0.000000 0.000000 0.000000 0.000000 0.000000 0.000000 0.000000 0.000000 0.000000 0.000000 0.000000 0.000000 0.000000 0.000000 0.000000 0.000000 0.000000 0.000000 0.000000 0.000000 0.000000 0.000000 0.000000 0.000000 0.000000 0.000000 0.000000 0.000000 0.000000 0.000000 0.000000 0.000000 0.000000 0.000000 0.000000 0.000000 0.000000 0.000000 1.392752 -21.124607 6.513050 23.481980 -43.834313 23.934639 11.916802 3.693968 30.684421 -2.613643 -4.829621 7.585331 0.000000 0.000000 0.000000 0.000000 0.000000 0.000000 0.000000 0.000000 0.000000 0.000000 0.000000 0.000000 0.000000 0.000000 0.000000 0.000000 0.000000 0.000000 0.000000 0.000000 0.000000 0.000000 0.000000 0.000000 0.000000 0.000000 0.000000 0.000000 0.000000 0.000000 0.000000 0.000000 0.000000 0.000000 0.000000 0.000000 0.000000 0.000000 0.000000 0.000000 0.000000 0.000000
